<svg width="970" height="970" xmlns="http://www.w3.org/2000/svg" xmlns:xlink="http://www.w3.org/1999/xlink" xml:space="preserve" overflow="hidden"><defs><clipPath id="clip0"><rect x="0" y="0" width="970" height="970"/></clipPath></defs><g clip-path="url(#clip0)"><path d="M0 161.67C-6.1747e-14 72.3821 72.3821 0 161.67 0L808.33 0C897.618-3.08735e-14 970 72.3821 970 161.67L970 808.33C970 897.618 897.618 970 808.33 970L161.67 970C72.3821 970 0 897.618 0 808.33Z" fill="#AC6AFF" fill-rule="evenodd"/><path d="M358 251.5C358 177.218 418.441 117 493 117 567.558 117 628 177.218 628 251.5 628 325.782 567.558 386 493 386 418.441 386 358 325.782 358 251.5Z" stroke="#000000" stroke-width="27.5" stroke-miterlimit="8" fill="none" fill-rule="evenodd"/><text font-family="ADLaM Display,ADLaM Display_MSFontService,sans-serif" font-weight="400" font-size="202" transform="matrix(1 0 0 1 434.283 321)">$</text><path d="M577 696C577 621.442 637.218 561 711.5 561 785.782 561 846 621.442 846 696 846 770.558 785.782 831 711.5 831 637.218 831 577 770.558 577 696Z" stroke="#000000" stroke-width="27.5" stroke-miterlimit="8" fill="none" fill-rule="evenodd"/><text font-family="ADLaM Display,ADLaM Display_MSFontService,sans-serif" font-weight="400" font-size="202" transform="matrix(1 0 0 1 652.925 765)">$</text><path d="M124 697.5C124 623.218 184.218 563 258.5 563 332.782 563 393 623.218 393 697.5 393 771.782 332.782 832 258.5 832 184.218 832 124 771.782 124 697.5Z" stroke="#000000" stroke-width="27.5" stroke-miterlimit="8" fill="none" fill-rule="evenodd"/><text font-family="ADLaM Display,ADLaM Display_MSFontService,sans-serif" font-weight="400" font-size="202" transform="matrix(1 0 0 1 200.031 767)">$</text><path d="M458 451 711.571 451 711.571 561.558" stroke="#000000" stroke-width="27.5" stroke-miterlimit="8" fill="none" fill-rule="evenodd"/><path d="M0 0 218.538 0 218.538 112.239" stroke="#000000" stroke-width="27.5" stroke-miterlimit="8" fill="none" fill-rule="evenodd" transform="matrix(-1 1.22465e-16 1.22465e-16 1 477.538 451)"/><path d="M0 0 0.000360892 52.7617" stroke="#000000" stroke-width="27.5" stroke-miterlimit="8" fill="none" fill-rule="evenodd" transform="matrix(1 0 0 -1 489 450.762)"/></g></svg>